<svg width="755" height="272" viewBox="0 0 755 272" fill="none" xmlns="http://www.w3.org/2000/svg">
<path d="M722.98 125.565C716.151 125.565 710.219 124.114 705.183 121.213C700.147 118.226 696.263 114.045 693.532 108.669C690.8 103.294 689.434 97.0219 689.434 89.8542C689.434 82.6864 690.8 76.4147 693.532 71.0389C696.263 65.6631 700.104 61.5246 705.055 58.6234C710.091 55.6368 715.938 54.1436 722.596 54.1436C729.083 54.1436 734.759 55.5942 739.625 58.4954C744.49 61.3966 748.246 65.5778 750.892 71.0389C753.623 76.5 754.989 83.0704 754.989 90.7501V94.462H706.463C706.719 100.435 708.341 104.958 711.329 108.029C714.316 111.016 718.243 112.509 723.108 112.509C730.534 112.509 735.271 109.352 737.32 103.038L754.093 104.062C752.215 110.717 748.502 115.965 742.954 119.805C737.491 123.645 730.833 125.565 722.98 125.565ZM706.463 83.4544H738.088C737.661 77.908 736.04 73.8121 733.223 71.1669C730.491 68.4363 726.949 67.071 722.596 67.071C718.157 67.071 714.529 68.479 711.713 71.2949C708.896 74.1108 707.146 78.1639 706.463 83.4544Z" fill="white"/>
<path d="M675.342 124.029C670.306 124.029 666.294 122.749 663.307 120.189C660.405 117.629 658.954 113.533 658.954 107.901V33.1523H675.342V106.237C675.342 109.651 677.049 111.357 680.464 111.357H685.457V124.029H675.342Z" fill="white"/>
<path d="M619.363 125.565C614.583 125.565 610.401 124.541 606.816 122.493C603.231 120.445 600.499 117.586 598.622 113.917L598.237 124.029H582.617V33.1523H599.006V65.4071C600.798 62.3352 603.444 59.69 606.944 57.4714C610.529 55.2528 614.669 54.1435 619.363 54.1435C625.253 54.1435 630.332 55.6368 634.6 58.6233C638.953 61.5246 642.282 65.6631 644.587 71.0389C646.977 76.3293 648.172 82.6011 648.172 89.8541C648.172 97.1072 646.977 103.422 644.587 108.797C642.282 114.088 638.953 118.226 634.6 121.213C630.332 124.114 625.253 125.565 619.363 125.565ZM615.65 112.253C620.345 112.253 624.101 110.291 626.918 106.365C629.734 102.355 631.143 96.8512 631.143 89.8541C631.143 82.7717 629.734 77.268 626.918 73.3428C624.186 69.4176 620.473 67.455 615.778 67.455C610.486 67.455 606.346 69.4176 603.359 73.3428C600.457 77.268 599.006 82.7717 599.006 89.8541C599.006 96.8512 600.457 102.355 603.359 106.365C606.346 110.291 610.444 112.253 615.65 112.253Z" fill="white"/>
<path d="M531.752 125.565C524.582 125.565 518.821 123.943 514.467 120.701C510.114 117.458 507.938 112.851 507.938 106.877C507.938 100.99 509.773 96.3819 513.443 93.054C517.113 89.7262 522.704 87.3369 530.216 85.8863L552.878 81.4065C552.878 71.6789 548.482 66.8151 539.691 66.8151C535.764 66.8151 532.649 67.7537 530.344 69.6309C528.039 71.4229 526.503 74.0254 525.735 77.4386L509.09 76.6707C510.456 69.503 513.785 63.9565 519.077 60.0313C524.369 56.1061 531.24 54.1436 539.691 54.1436C549.421 54.1436 556.762 56.6181 561.713 61.5673C566.749 66.4311 569.267 73.4281 569.267 82.5584V107.389C569.267 109.181 569.566 110.419 570.163 111.101C570.846 111.784 571.828 112.125 573.108 112.125H575.285V124.029C573.834 124.37 571.828 124.541 569.267 124.541C565.597 124.541 562.481 123.773 559.92 122.237C557.36 120.616 555.738 117.714 555.055 113.533C553.348 117.117 550.403 120.018 546.22 122.237C542.123 124.455 537.301 125.565 531.752 125.565ZM535.081 113.661C540.544 113.661 544.855 112.083 548.013 108.925C551.257 105.768 552.878 101.587 552.878 96.3819V92.5421L535.209 96.1259C531.539 96.8939 528.893 98.0458 527.271 99.5818C525.735 101.032 524.966 102.952 524.966 105.342C524.966 110.888 528.338 113.661 535.081 113.661Z" fill="white"/>
<path d="M481.333 124.028V55.6791H497.722V124.028H481.333ZM481.077 46.5914V32H498.106V46.5914H481.077Z" fill="white"/>
<path d="M463.272 124.029C458.236 124.029 454.224 122.749 451.236 120.189C448.334 117.629 446.883 113.533 446.883 107.901V33.1523H463.272V106.237C463.272 109.651 464.979 111.357 468.393 111.357H473.387V124.029H463.272Z" fill="white"/>
<path d="M403.999 125.565C397.17 125.565 391.238 124.114 386.202 121.213C381.166 118.226 377.282 114.045 374.551 108.669C371.819 103.294 370.453 97.0219 370.453 89.8542C370.453 82.6864 371.819 76.4147 374.551 71.0389C377.282 65.6631 381.123 61.5246 386.074 58.6234C391.11 55.6368 396.957 54.1436 403.615 54.1436C410.102 54.1436 415.778 55.5942 420.644 58.4954C425.509 61.3966 429.265 65.5778 431.911 71.0389C434.642 76.5 436.008 83.0704 436.008 90.7501V94.462H387.482C387.738 100.435 389.36 104.958 392.348 108.029C395.335 111.016 399.262 112.509 404.127 112.509C411.553 112.509 416.29 109.352 418.339 103.038L435.112 104.062C433.234 110.717 429.521 115.965 423.973 119.805C418.51 123.645 411.852 125.565 403.999 125.565ZM387.482 83.4544H419.107C418.68 77.908 417.059 73.8121 414.242 71.1669C411.51 68.4363 407.968 67.071 403.615 67.071C399.176 67.071 395.549 68.479 392.732 71.2949C389.915 74.1108 388.165 78.1639 387.482 83.4544Z" fill="white"/>
<path d="M291.989 124.029V33.1523H330.016C336.588 33.1523 342.265 34.2616 347.045 36.4802C351.825 38.6988 355.538 41.856 358.184 45.9518C360.83 50.0477 362.153 54.8688 362.153 60.4153C362.153 65.8764 360.617 70.5269 357.544 74.3667C354.556 78.1213 350.843 80.6812 346.405 82.0464C355.111 83.3264 359.848 88.5742 360.617 97.7898L362.921 124.029H346.02L344.1 100.222C343.844 96.5525 342.691 93.9073 340.643 92.286C338.594 90.5794 335.18 89.7261 330.4 89.7261H308.634V124.029H291.989ZM308.634 75.1347H328.992C333.942 75.1347 337.826 73.9827 340.643 71.6788C343.545 69.2896 344.996 65.8764 344.996 61.4392C344.996 57.0021 343.545 53.5889 340.643 51.1996C337.741 48.8104 333.601 47.6158 328.223 47.6158H308.634V75.1347Z" fill="white"/>
<path d="M527.693 241.488C522.913 241.488 518.731 240.464 515.146 238.416C511.561 236.368 508.829 233.51 506.951 229.841L506.567 239.952H490.947V149.076H507.335V181.33C509.128 178.259 511.774 175.613 515.274 173.395C518.859 171.176 522.999 170.067 527.693 170.067C533.583 170.067 538.662 171.56 542.93 174.547C547.283 177.448 550.612 181.586 552.916 186.962C555.306 192.253 556.501 198.524 556.501 205.777C556.501 213.031 555.306 219.345 552.916 224.721C550.612 230.011 547.283 234.15 542.93 237.136C538.662 240.037 533.583 241.488 527.693 241.488ZM523.98 228.177C528.675 228.177 532.431 226.214 535.247 222.289C538.064 218.278 539.473 212.775 539.473 205.777C539.473 198.695 538.064 193.191 535.247 189.266C532.516 185.341 528.803 183.378 524.108 183.378C518.816 183.378 514.676 185.341 511.689 189.266C508.787 193.191 507.335 198.695 507.335 205.777C507.335 212.775 508.787 218.278 511.689 222.289C514.676 226.214 518.773 228.177 523.98 228.177Z" fill="white"/>
<path d="M441.02 241.488C434.021 241.488 428.515 239.227 424.504 234.705C420.492 230.182 418.486 223.825 418.486 215.633V171.603H434.875V211.537C434.875 217.34 435.814 221.564 437.691 224.209C439.655 226.854 442.6 228.177 446.526 228.177C450.879 228.177 454.294 226.726 456.769 223.825C459.244 220.838 460.482 216.529 460.482 210.897V171.603H476.871V239.952H461.89L461.634 228.817C458.049 237.264 451.178 241.488 441.02 241.488Z" fill="white"/>
<path d="M400.425 239.952C395.389 239.952 391.377 238.672 388.389 236.112C385.487 233.552 384.036 229.457 384.036 223.825V149.076H400.425V222.161C400.425 225.574 402.132 227.281 405.546 227.281H410.54V239.952H400.425Z" fill="white"/>
<path d="M334.113 242C325.833 242 318.535 240.123 312.219 236.368C305.902 232.528 300.952 227.11 297.367 220.113C293.782 213.031 291.989 204.54 291.989 194.642C291.989 184.914 293.739 176.509 297.239 169.427C300.738 162.259 305.646 156.755 311.963 152.916C318.279 148.99 325.705 147.028 334.241 147.028C345.85 147.028 354.855 149.929 361.257 155.731C367.659 161.449 371.841 169.47 373.804 179.795L356.391 180.691C355.282 174.717 352.892 170.024 349.221 166.611C345.551 163.198 340.558 161.491 334.241 161.491C326.559 161.491 320.456 164.478 315.932 170.451C311.408 176.424 309.146 184.488 309.146 194.642C309.146 204.882 311.408 212.945 315.932 218.833C320.541 224.635 326.602 227.537 334.113 227.537C340.856 227.537 346.063 225.702 349.733 222.033C353.489 218.278 355.879 213.159 356.904 206.673L374.316 207.569C372.524 218.236 368.213 226.641 361.385 232.784C354.642 238.928 345.551 242 334.113 242Z" fill="white"/>
<path d="M243.634 102.254C231.465 82.3802 219.296 62.4103 207.03 42.6334C199.98 31.1532 199.111 31.1532 190.612 41.8616C179.022 56.3325 171.875 58.0691 155.553 49.3865C145.702 44.177 136.43 38.0027 126.579 32.6967C113.927 25.9436 100.985 20.2517 84.8564 20.1553C73.2667 18.9976 63.8019 25.7507 55.1097 34.1438C52.3089 36.8451 52.4054 39.6428 54.0473 43.1158C68.5343 73.8906 82.8282 104.665 97.0254 135.537C99.1502 140.071 102.434 141.711 106.49 140.264C113.734 137.756 120.881 134.572 127.931 131.388C145.219 123.574 162.12 121.838 178.249 134.379C183.851 138.72 189.935 142.579 196.02 146.149C203.94 150.876 212.535 151.551 219.875 145.57C227.891 139.01 235.521 131.581 242.282 123.671C249.815 114.891 249.525 111.901 243.634 102.254Z" fill="white"/>
<path fill-rule="evenodd" clip-rule="evenodd" d="M260.703 91.8392L260.709 91.8494C260.779 91.9644 260.851 92.0827 260.926 92.2042C263.486 96.3868 268.398 104.413 267.974 114.155C267.513 124.749 261.147 132.384 257.48 136.658C249.931 145.49 241.452 153.739 232.551 161.024L232.535 161.037L232.518 161.051C216.878 173.796 198.742 171.017 185.834 163.342C179.409 159.572 172.529 155.232 165.989 150.164L165.976 150.154L165.963 150.144C161.206 146.444 157.101 145.299 153.151 145.225C148.755 145.143 143.254 146.391 136.177 149.59L136.17 149.593C129.195 152.743 121.3 156.276 113.107 159.117C107.021 161.262 99.4357 161.682 92.0889 158.013C85.1635 154.554 81.157 148.8 78.9108 144.006L78.8804 143.941L78.8505 143.876C64.6759 113.054 50.4092 82.3381 35.9531 51.629C34.4594 48.4654 32.4477 43.1763 32.9784 36.7082C33.57 29.499 37.0288 23.8137 41.2086 19.7793C41.2098 19.7781 41.211 19.777 41.2123 19.7758C41.2139 19.7742 41.2155 19.7726 41.2172 19.771C50.2498 11.0505 65.2154 -1.43341 85.8449 0.186307C106.531 0.511919 122.731 7.99049 136.005 15.0759L136.038 15.0936L136.072 15.1115C141.215 17.882 146.167 20.8431 150.677 23.5402C150.898 23.6724 151.118 23.8039 151.337 23.9347C156.161 26.8185 160.515 29.4045 164.911 31.7295L164.933 31.7409L164.954 31.7524C167.617 33.1686 169.397 33.9292 170.545 34.328C171.509 33.4515 172.934 31.9503 174.967 29.4135C176.915 26.9603 179.398 23.8494 181.938 21.4202C183.885 19.5579 190.349 13.5256 200.257 13.9679C210.371 14.4194 216.257 21.2205 218.059 23.383C220.337 26.1174 222.442 29.5221 224.056 32.1497C233.704 47.7064 243.3 63.3929 252.844 78.997C255.466 83.282 258.083 87.5607 260.696 91.8289L260.703 91.8392ZM207.03 42.6333C216.65 58.1444 226.211 73.7742 235.759 89.383C238.384 93.6757 241.009 97.9669 243.634 102.253C249.525 111.901 249.815 114.891 242.282 123.67C235.521 131.581 227.891 139.01 219.875 145.57C212.535 151.551 203.94 150.876 196.02 146.149C189.935 142.579 183.851 138.72 178.249 134.379C162.12 121.837 145.219 123.574 127.931 131.388C120.881 134.572 113.734 137.755 106.49 140.264C102.434 141.711 99.1502 140.071 97.0254 135.537C82.8282 104.665 68.5343 73.8905 54.0473 43.1157C52.4054 39.6427 52.3089 36.845 55.1097 34.1437C63.8019 25.7506 73.2667 18.9975 84.8564 20.1552C100.985 20.2517 113.927 25.9436 126.579 32.6966C131.316 35.2483 135.92 38.0008 140.518 40.7502C145.482 43.718 150.439 46.6822 155.553 49.3864C171.875 58.069 179.022 56.3325 190.612 41.8616C199.111 31.1531 199.98 31.1531 207.03 42.6333Z" fill="white"/>
<path d="M37.8219 36.4598C34.6348 29.6102 31.9305 28.6455 25.846 31.4432C19.3751 34.4339 18.6025 36.8457 21.8862 44.1776C37.339 78.9078 111.416 245.42 111.416 245.42C111.416 245.42 115.955 253.909 125.13 250.05C134.499 246.095 129.766 236.737 129.766 236.737C129.766 236.737 56.9448 77.6537 37.8219 36.4598Z" fill="white"/>
<path fill-rule="evenodd" clip-rule="evenodd" d="M55.9633 28.0471L55.9671 28.0552C65.5531 48.7051 88.5624 98.8254 109.15 143.727C119.449 166.19 129.15 187.365 136.277 202.925C139.84 210.704 142.76 217.08 144.789 221.511L147.879 228.262C147.903 228.312 147.927 228.363 147.951 228.415C148.08 228.692 148.227 229.02 148.385 229.395C148.698 230.136 149.069 231.098 149.43 232.238C150.117 234.408 150.945 237.779 150.962 241.825C150.98 245.962 150.138 251.363 146.891 256.691C143.548 262.175 138.58 266.062 132.917 268.453L132.905 268.458L132.892 268.463C120.951 273.485 110.216 270.478 103.15 265.399C100.028 263.154 97.8329 260.7 96.4408 258.9C95.7219 257.97 95.1511 257.129 94.7195 256.447C94.5021 256.103 94.3156 255.793 94.1592 255.523C94.0809 255.388 94.0097 255.262 93.9456 255.147C93.9135 255.089 93.8832 255.034 93.8545 254.981L93.8129 254.905L93.793 254.868L93.7833 254.85C93.7785 254.841 93.7737 254.832 111.416 245.42C111.416 245.42 115.955 253.909 125.13 250.05C134.499 246.095 129.766 236.737 129.766 236.737C129.766 236.737 125.312 227.006 118.317 211.735C97.8893 167.134 55.7939 75.2744 39.7095 40.5318C39.1281 39.2759 38.5807 38.0947 38.0695 36.993C38.0635 36.9799 38.0574 36.9669 38.0513 36.9539C37.9741 36.7873 37.8976 36.6226 37.822 36.4597C34.6349 29.6102 31.9306 28.6454 25.8461 31.4431C19.458 34.3955 18.6233 36.7838 21.7622 43.8984C21.7643 43.9032 21.7665 43.9081 21.7686 43.9129C21.8072 44.0004 21.8465 44.0886 21.8863 44.1775C22.3871 45.3032 22.9496 46.5673 23.5691 47.9597C37.393 79.0301 79.6327 173.977 100.084 219.948C106.994 235.479 111.416 245.42 111.416 245.42C93.1385 253.533 93.1383 253.532 93.1377 253.531L54.1685 165.936C33.7268 119.987 11.3555 69.7015 3.61968 52.3151C3.59468 52.2593 3.56883 52.2017 3.54218 52.1423C2.05293 48.8243 -1.925 39.9616 1.11559 30.2301C4.53786 19.2771 14.1676 14.8269 17.4103 13.3284L17.4651 13.3031L17.4828 13.2949C21.0775 11.6421 30.2646 7.67479 40.4746 11.8348C50.0568 15.739 54.2545 24.3746 55.9595 28.039L55.9633 28.0471ZM111.416 245.42L93.7737 254.832L93.4326 254.194L93.1385 253.533L111.416 245.42Z" fill="white"/>
<path d="M241.94 95.4373C230.625 76.9585 219.31 58.3901 207.905 40.001C201.35 29.3264 200.541 29.3264 192.639 39.2834C181.862 52.7388 175.217 54.3534 160.04 46.2802C150.881 41.4362 142.259 35.6953 133.1 30.7616C121.335 24.4824 109.302 19.19 94.3049 19.1003C83.5286 18.0238 74.728 24.303 66.6457 32.1072C64.0415 34.6188 64.1313 37.2202 65.6579 40.4495C79.1283 69.0647 92.4191 97.6798 105.62 126.385C107.596 130.601 110.649 132.126 114.421 130.78C121.156 128.448 127.801 125.488 134.357 122.527C150.432 115.262 166.147 113.647 181.144 125.308C186.353 129.345 192.01 132.933 197.668 136.252C205.031 140.647 213.024 141.275 219.849 135.714C227.302 129.614 234.397 122.707 240.683 115.351C247.688 107.188 247.418 104.408 241.94 95.4373Z" fill="black"/>
<path d="M43.5709 33.2618C40.6074 26.8929 38.093 25.9958 32.4354 28.5972C26.4186 31.378 25.7002 33.6206 28.7535 40.438C43.1219 72.731 112 227.558 112 227.558C112 227.558 116.221 235.452 124.752 231.864C133.463 228.186 129.063 219.485 129.063 219.485C129.063 219.485 61.3518 71.5648 43.5709 33.2618Z" fill="black"/>
</svg>
