<svg width="764" height="271" viewBox="0 0 764 271" fill="none" xmlns="http://www.w3.org/2000/svg">
<path d="M731.991 125.565C725.162 125.565 719.23 124.114 714.194 121.213C709.158 118.226 705.274 114.045 702.542 108.669C699.811 103.294 698.445 97.0219 698.445 89.8542C698.445 82.6864 699.811 76.4147 702.542 71.0389C705.274 65.6631 709.115 61.5246 714.066 58.6234C719.102 55.6368 724.949 54.1436 731.607 54.1436C738.094 54.1436 743.77 55.5942 748.636 58.4954C753.501 61.3966 757.257 65.5778 759.903 71.0389C762.634 76.5 764 83.0704 764 90.7501V94.462H715.474C715.73 100.435 717.352 104.958 720.34 108.029C723.327 111.016 727.254 112.509 732.119 112.509C739.545 112.509 744.282 109.352 746.331 103.038L763.104 104.062C761.226 110.717 757.513 115.965 751.965 119.805C746.502 123.645 739.844 125.565 731.991 125.565ZM715.474 83.4544H747.099C746.672 77.908 745.051 73.8121 742.234 71.1669C739.502 68.4363 735.96 67.071 731.607 67.071C727.168 67.071 723.54 68.479 720.724 71.2949C717.907 74.1108 716.157 78.1639 715.474 83.4544Z" fill="black"/>
<path d="M684.353 124.029C679.317 124.029 675.305 122.749 672.318 120.189C669.416 117.629 667.965 113.533 667.965 107.901V33.1523H684.353V106.237C684.353 109.651 686.06 111.357 689.475 111.357H694.468V124.029H684.353Z" fill="black"/>
<path d="M628.374 125.565C623.594 125.565 619.412 124.541 615.827 122.493C612.242 120.445 609.51 117.586 607.632 113.917L607.248 124.029H591.628V33.1523H608.017V65.4071C609.809 62.3352 612.455 59.69 615.955 57.4714C619.54 55.2528 623.68 54.1435 628.374 54.1435C634.264 54.1435 639.343 55.6368 643.611 58.6233C647.964 61.5246 651.293 65.6631 653.598 71.0389C655.988 76.3293 657.183 82.6011 657.183 89.8541C657.183 97.1072 655.988 103.422 653.598 108.797C651.293 114.088 647.964 118.226 643.611 121.213C639.343 124.114 634.264 125.565 628.374 125.565ZM624.661 112.253C629.356 112.253 633.112 110.291 635.929 106.365C638.745 102.355 640.154 96.8512 640.154 89.8541C640.154 82.7717 638.745 77.268 635.929 73.3428C633.197 69.4176 629.484 67.455 624.789 67.455C619.497 67.455 615.357 69.4176 612.37 73.3428C609.468 77.268 608.017 82.7717 608.017 89.8541C608.017 96.8512 609.468 102.355 612.37 106.365C615.357 110.291 619.455 112.253 624.661 112.253Z" fill="black"/>
<path d="M540.763 125.565C533.593 125.565 527.832 123.943 523.478 120.701C519.125 117.458 516.949 112.851 516.949 106.877C516.949 100.99 518.784 96.3819 522.454 93.054C526.124 89.7262 531.715 87.3369 539.227 85.8863L561.889 81.4065C561.889 71.6789 557.493 66.8151 548.702 66.8151C544.775 66.8151 541.66 67.7537 539.355 69.6309C537.05 71.4229 535.514 74.0254 534.746 77.4386L518.101 76.6707C519.467 69.503 522.796 63.9565 528.088 60.0313C533.38 56.1061 540.251 54.1436 548.702 54.1436C558.432 54.1436 565.773 56.6181 570.724 61.5673C575.76 66.4311 578.278 73.4281 578.278 82.5584V107.389C578.278 109.181 578.577 110.419 579.174 111.101C579.857 111.784 580.839 112.125 582.119 112.125H584.296V124.029C582.845 124.37 580.839 124.541 578.278 124.541C574.608 124.541 571.492 123.773 568.931 122.237C566.371 120.616 564.749 117.714 564.066 113.533C562.359 117.117 559.414 120.018 555.231 122.237C551.134 124.455 546.312 125.565 540.763 125.565ZM544.092 113.661C549.555 113.661 553.866 112.083 557.024 108.925C560.268 105.768 561.889 101.587 561.889 96.3819V92.5421L544.22 96.1259C540.55 96.8939 537.904 98.0458 536.282 99.5818C534.746 101.032 533.977 102.952 533.977 105.342C533.977 110.888 537.349 113.661 544.092 113.661Z" fill="black"/>
<path d="M490.344 124.028V55.6791H506.733V124.028H490.344ZM490.088 46.5914V32H507.117V46.5914H490.088Z" fill="black"/>
<path d="M472.283 124.029C467.247 124.029 463.235 122.749 460.247 120.189C457.345 117.629 455.894 113.533 455.894 107.901V33.1523H472.283V106.237C472.283 109.651 473.99 111.357 477.404 111.357H482.398V124.029H472.283Z" fill="black"/>
<path d="M413.01 125.565C406.181 125.565 400.249 124.114 395.213 121.213C390.177 118.226 386.293 114.045 383.562 108.669C380.83 103.294 379.464 97.0219 379.464 89.8542C379.464 82.6864 380.83 76.4147 383.562 71.0389C386.293 65.6631 390.134 61.5246 395.085 58.6234C400.121 55.6368 405.968 54.1436 412.626 54.1436C419.113 54.1436 424.789 55.5942 429.655 58.4954C434.52 61.3966 438.276 65.5778 440.922 71.0389C443.653 76.5 445.019 83.0704 445.019 90.7501V94.462H396.493C396.749 100.435 398.371 104.958 401.359 108.029C404.346 111.016 408.273 112.509 413.138 112.509C420.564 112.509 425.301 109.352 427.35 103.038L444.123 104.062C442.245 110.717 438.532 115.965 432.984 119.805C427.521 123.645 420.863 125.565 413.01 125.565ZM396.493 83.4544H428.118C427.691 77.908 426.07 73.8121 423.253 71.1669C420.521 68.4363 416.979 67.071 412.626 67.071C408.187 67.071 404.56 68.479 401.743 71.2949C398.926 74.1108 397.176 78.1639 396.493 83.4544Z" fill="black"/>
<path d="M301 124.029V33.1523H339.027C345.599 33.1523 351.276 34.2616 356.056 36.4802C360.836 38.6988 364.549 41.856 367.195 45.9518C369.841 50.0477 371.164 54.8688 371.164 60.4153C371.164 65.8764 369.628 70.5269 366.555 74.3667C363.567 78.1213 359.854 80.6812 355.416 82.0464C364.122 83.3264 368.859 88.5742 369.628 97.7898L371.932 124.029H355.031L353.111 100.222C352.855 96.5525 351.702 93.9073 349.654 92.286C347.605 90.5794 344.191 89.7261 339.411 89.7261H317.645V124.029H301ZM317.645 75.1347H338.003C342.953 75.1347 346.837 73.9827 349.654 71.6788C352.556 69.2896 354.007 65.8764 354.007 61.4392C354.007 57.0021 352.556 53.5889 349.654 51.1996C346.752 48.8104 342.612 47.6158 337.234 47.6158H317.645V75.1347Z" fill="black"/>
<path d="M536.704 241.488C531.924 241.488 527.742 240.464 524.157 238.416C520.572 236.368 517.84 233.51 515.962 229.841L515.578 239.952H499.958V149.076H516.346V181.33C518.139 178.259 520.785 175.613 524.285 173.395C527.87 171.176 532.009 170.067 536.704 170.067C542.594 170.067 547.673 171.56 551.941 174.547C556.294 177.448 559.623 181.586 561.927 186.962C564.317 192.253 565.512 198.524 565.512 205.777C565.512 213.031 564.317 219.345 561.927 224.721C559.623 230.011 556.294 234.15 551.941 237.136C547.673 240.037 542.594 241.488 536.704 241.488ZM532.991 228.177C537.686 228.177 541.442 226.214 544.258 222.289C547.075 218.278 548.484 212.775 548.484 205.777C548.484 198.695 547.075 193.191 544.258 189.266C541.527 185.341 537.814 183.378 533.119 183.378C527.827 183.378 523.687 185.341 520.7 189.266C517.797 193.191 516.346 198.695 516.346 205.777C516.346 212.775 517.797 218.278 520.7 222.289C523.687 226.214 527.784 228.177 532.991 228.177Z" fill="black"/>
<path d="M450.031 241.488C443.032 241.488 437.527 239.227 433.515 234.705C429.503 230.182 427.497 223.825 427.497 215.633V171.603H443.886V211.537C443.886 217.34 444.825 221.564 446.702 224.209C448.666 226.854 451.611 228.177 455.537 228.177C459.89 228.177 463.305 226.726 465.78 223.825C468.255 220.838 469.493 216.529 469.493 210.897V171.603H485.882V239.952H470.901L470.645 228.817C467.06 237.264 460.189 241.488 450.031 241.488Z" fill="black"/>
<path d="M409.436 239.952C404.4 239.952 400.388 238.672 397.4 236.112C394.498 233.552 393.047 229.457 393.047 223.825V149.076H409.436V222.161C409.436 225.574 411.143 227.281 414.557 227.281H419.551V239.952H409.436Z" fill="black"/>
<path d="M343.124 242C334.844 242 327.546 240.123 321.23 236.368C314.913 232.528 309.963 227.11 306.378 220.113C302.793 213.031 301 204.54 301 194.642C301 184.914 302.75 176.509 306.249 169.427C309.749 162.259 314.657 156.755 320.974 152.916C327.29 148.99 334.716 147.028 343.252 147.028C354.861 147.028 363.866 149.929 370.268 155.731C376.67 161.449 380.852 169.47 382.815 179.795L365.402 180.691C364.293 174.717 361.903 170.024 358.232 166.611C354.562 163.198 349.569 161.491 343.252 161.491C335.57 161.491 329.467 164.478 324.943 170.451C320.419 176.424 318.157 184.488 318.157 194.642C318.157 204.882 320.419 212.945 324.943 218.833C329.552 224.635 335.613 227.537 343.124 227.537C349.867 227.537 355.074 225.702 358.744 222.033C362.5 218.278 364.89 213.159 365.915 206.673L383.327 207.569C381.535 218.236 377.224 226.641 370.396 232.784C363.653 238.928 354.562 242 343.124 242Z" fill="black"/>
<path d="M243.634 102.21C231.465 82.337 219.296 62.3671 207.03 42.5902C199.98 31.1099 199.111 31.1099 190.612 41.8184C179.022 56.2893 171.875 58.0258 155.553 49.3433C145.702 44.1338 136.43 37.9595 126.579 32.6535C113.927 25.9004 100.985 20.2085 84.8563 20.1121C73.2667 18.9544 63.8019 25.7075 55.1097 34.1006C52.3089 36.8018 52.4054 39.5995 54.0473 43.0726C68.5343 73.8474 82.8282 104.622 97.0254 135.493C99.1502 140.028 102.434 141.668 106.49 140.221C113.734 137.712 120.881 134.529 127.931 131.345C145.219 123.531 162.12 121.794 178.249 134.336C183.851 138.677 189.935 142.536 196.02 146.105C203.94 150.833 212.535 151.508 219.875 145.527C227.891 138.966 235.521 131.538 242.282 123.627C249.815 114.848 249.525 111.858 243.634 102.21Z" fill="black"/>
<path fill-rule="evenodd" clip-rule="evenodd" d="M260.703 91.7959L260.709 91.8062C260.779 91.9212 260.851 92.0395 260.926 92.161C263.486 96.3436 268.398 104.37 267.974 114.112C267.513 124.706 261.147 132.341 257.48 136.615C249.931 145.446 241.452 153.696 232.551 160.981L232.535 160.994L232.518 161.007C216.878 173.752 198.742 170.974 185.834 163.299C179.409 159.528 172.529 155.189 165.989 150.121L165.976 150.111L165.963 150.101C161.206 146.401 157.101 145.256 153.151 145.182C148.755 145.1 143.254 146.348 136.177 149.547L136.17 149.55C129.195 152.699 121.299 156.233 113.107 159.074C107.021 161.218 99.4357 161.639 92.0889 157.969C85.1635 154.511 81.157 148.756 78.9108 143.963L78.8804 143.898L78.8505 143.833C64.6759 113.011 50.4092 82.2949 35.9531 51.5858C34.4594 48.4222 32.4477 43.1331 32.9784 36.665C33.57 29.4558 37.0288 23.7705 41.2086 19.7361C41.2098 19.7349 41.211 19.7337 41.2123 19.7326C41.2139 19.731 41.2155 19.7294 41.2172 19.7278C50.2498 11.0073 65.2154 -1.47663 85.8449 0.143094C106.531 0.468707 122.731 7.94728 136.005 15.0326L136.038 15.0504L136.072 15.0683C141.215 17.8388 146.167 20.7999 150.677 23.497C150.898 23.6291 151.118 23.7607 151.337 23.8915C156.161 26.7753 160.515 29.3613 164.911 31.6863L164.933 31.6977L164.954 31.7092C167.617 33.1254 169.397 33.886 170.545 34.2848C171.509 33.4083 172.934 31.907 174.967 29.3703C176.915 26.9171 179.398 23.8062 181.938 21.377C183.885 19.5147 190.349 13.4824 200.257 13.9247C210.371 14.3762 216.257 21.1773 218.059 23.3398C220.337 26.0742 222.442 29.4788 224.056 32.1065C233.704 47.6631 243.3 63.3497 252.844 78.9538C255.466 83.2388 258.083 87.5175 260.696 91.7857L260.703 91.7959ZM207.03 42.5901C216.65 58.1012 226.211 73.731 235.759 89.3398C238.384 93.6325 241.009 97.9236 243.634 102.21C249.525 111.858 249.815 114.848 242.282 123.627C235.521 131.538 227.891 138.966 219.875 145.527C212.535 151.508 203.94 150.833 196.02 146.105C189.935 142.536 183.851 138.677 178.249 134.336C162.12 121.794 145.219 123.531 127.931 131.345C120.881 134.529 113.734 137.712 106.49 140.221C102.434 141.668 99.1502 140.028 97.0254 135.493C82.8282 104.622 68.5343 73.8473 54.0473 43.0725C52.4054 39.5995 52.3089 36.8018 55.1097 34.1005C63.8019 25.7074 73.2667 18.9543 84.8563 20.112C100.985 20.2084 113.927 25.9003 126.579 32.6534C131.316 35.2051 135.92 37.9576 140.518 40.707C145.482 43.6748 150.439 46.639 155.553 49.3432C171.875 58.0258 179.022 56.2892 190.612 41.8183C199.111 31.1099 199.98 31.1099 207.03 42.5901Z" fill="black"/>
<path d="M37.822 36.4166C34.6349 29.567 31.9306 28.6023 25.8461 31.4C19.3752 34.3907 18.6026 36.8025 21.8863 44.1344C37.3391 78.8646 111.416 245.377 111.416 245.377C111.416 245.377 115.955 253.866 125.13 250.007C134.499 246.052 129.766 236.694 129.766 236.694C129.766 236.694 56.9449 77.6105 37.822 36.4166Z" fill="black"/>
<path fill-rule="evenodd" clip-rule="evenodd" d="M55.9633 28.0039L55.9671 28.012C65.5531 48.6619 88.5624 98.7822 109.15 143.684C119.449 166.147 129.15 187.322 136.277 202.882C139.84 210.661 142.76 217.037 144.789 221.468L147.879 228.219C147.903 228.268 147.927 228.319 147.951 228.372C148.08 228.649 148.227 228.977 148.385 229.351C148.698 230.093 149.069 231.055 149.43 232.194C150.117 234.365 150.945 237.736 150.962 241.782C150.98 245.919 150.138 251.32 146.891 256.648C143.548 262.132 138.58 266.019 132.917 268.409L132.905 268.415L132.892 268.42C120.951 273.442 110.216 270.434 103.15 265.356C100.028 263.111 97.8329 260.657 96.4408 258.857C95.7219 257.927 95.1511 257.086 94.7195 256.404C94.5021 256.06 94.3156 255.749 94.1592 255.48C94.0809 255.344 94.0097 255.219 93.9456 255.103C93.9135 255.046 93.8832 254.991 93.8545 254.938L93.8129 254.861L93.793 254.824L93.7833 254.806C93.7785 254.797 93.7737 254.789 111.416 245.376C111.416 245.376 115.955 253.866 125.13 250.007C134.499 246.052 129.766 236.694 129.766 236.694C129.766 236.694 125.312 226.963 118.317 211.692C97.8893 167.091 55.7939 75.2312 39.7095 40.4885C39.1281 39.2327 38.5807 38.0515 38.0695 36.9498C38.0635 36.9367 38.0574 36.9237 38.0513 36.9106C37.9741 36.7441 37.8976 36.5794 37.822 36.4165C34.6349 29.5669 31.9306 28.6022 25.8461 31.3999C19.458 34.3523 18.6233 36.7406 21.7622 43.8552C21.7643 43.86 21.7665 43.8648 21.7686 43.8697C21.8072 43.9572 21.8465 44.0454 21.8863 44.1343C22.3871 45.26 22.9496 46.5241 23.5691 47.9165C37.393 78.9868 79.6327 173.933 100.084 219.905C106.994 235.435 111.416 245.376 111.416 245.376C93.1385 253.49 93.1383 253.489 93.1377 253.488L54.1685 165.892C33.7268 119.944 11.3555 69.6583 3.61968 52.2719C3.59468 52.2161 3.56883 52.1585 3.54218 52.0991C2.05293 48.7811 -1.925 39.9184 1.11559 30.1869C4.53786 19.2339 14.1676 14.7837 17.4103 13.2852L17.4651 13.2598L17.4828 13.2517C21.0775 11.5988 30.2646 7.63158 40.4746 11.7916C50.0568 15.6958 54.2545 24.3314 55.9595 27.9958L55.9633 28.0039ZM111.416 245.376L93.7737 254.789L93.4326 254.151L93.1385 253.49L111.416 245.376Z" fill="black"/>
<path d="M241.94 95.3941C230.625 76.9153 219.31 58.3468 207.905 39.9578C201.35 29.2832 200.541 29.2832 192.639 39.2402C181.862 52.6956 175.217 54.3102 160.04 46.237C150.881 41.393 142.26 35.6521 133.1 30.7184C121.336 24.4392 109.302 19.1468 94.3049 19.0571C83.5286 17.9806 74.728 24.2598 66.6458 32.064C64.0415 34.5756 64.1313 37.177 65.6579 40.4063C79.1283 69.0215 92.4191 97.6366 105.62 126.341C107.596 130.558 110.649 132.082 114.421 130.737C121.156 128.405 127.801 125.444 134.357 122.484C150.432 115.218 166.147 113.604 181.144 125.265C186.353 129.302 192.01 132.89 197.668 136.209C205.031 140.604 213.024 141.232 219.849 135.671C227.302 129.571 234.397 122.664 240.683 115.308C247.688 107.145 247.418 104.364 241.94 95.3941Z" fill="#FDD3D0"/>
<path d="M43.571 33.2185C40.6075 26.8497 38.093 25.9526 32.4354 28.554C26.4187 31.3348 25.7002 33.5774 28.7535 40.3948C43.1219 72.6877 112 227.515 112 227.515C112 227.515 116.221 235.408 124.752 231.82C133.463 228.143 129.063 219.441 129.063 219.441C129.063 219.441 61.3519 71.5216 43.571 33.2185Z" fill="#FDD3D0"/>
</svg>
