<svg width="691" height="218" viewBox="0 0 691 218" fill="none" xmlns="http://www.w3.org/2000/svg">
<path d="M430.868 99.5363C424.041 99.5363 418.111 98.0856 413.076 95.1843C408.041 92.1976 404.159 88.0163 401.428 82.6403C398.697 77.2643 397.332 70.9923 397.332 63.8243C397.332 56.6563 398.697 50.3843 401.428 45.0083C404.159 39.6323 407.999 35.4936 412.948 32.5923C417.983 29.6056 423.828 28.1123 430.484 28.1123C436.969 28.1123 442.644 29.563 447.508 32.4643C452.372 35.3656 456.127 39.547 458.772 45.0083C461.503 50.4696 462.868 57.0403 462.868 64.7203V68.4323H414.356C414.612 74.4056 416.233 78.9283 419.22 82.0003C422.207 84.987 426.132 86.4803 430.996 86.4803C438.42 86.4803 443.156 83.323 445.204 77.0083L461.972 78.0323C460.095 84.6883 456.383 89.9363 450.836 93.7763C445.375 97.6163 438.719 99.5363 430.868 99.5363ZM414.356 57.4243H445.972C445.545 51.8776 443.924 47.7816 441.108 45.1363C438.377 42.4056 434.836 41.0403 430.484 41.0403C426.047 41.0403 422.42 42.4483 419.604 45.2643C416.788 48.0803 415.039 52.1336 414.356 57.4243Z" fill="white"/>
<path d="M383.244 98.0001C378.209 98.0001 374.199 96.7201 371.212 94.1601C368.311 91.6001 366.86 87.5041 366.86 81.8721V7.12012H383.244V80.2081C383.244 83.6215 384.951 85.3281 388.364 85.3281H393.356V98.0001H383.244Z" fill="white"/>
<path d="M327.281 99.5361C322.502 99.5361 318.321 98.5121 314.737 96.4641C311.153 94.4161 308.422 91.5575 306.545 87.8881L306.161 98.0001H290.545V7.12012H306.929V39.3761C308.721 36.3041 311.366 33.6588 314.865 31.4401C318.449 29.2215 322.588 28.1121 327.281 28.1121C333.169 28.1121 338.246 29.6055 342.513 32.5921C346.865 35.4935 350.193 39.6321 352.497 45.0081C354.886 50.2988 356.081 56.5708 356.081 63.8241C356.081 71.0775 354.886 77.3921 352.497 82.7681C350.193 88.0588 346.865 92.1975 342.513 95.1841C338.246 98.0855 333.169 99.5361 327.281 99.5361ZM323.569 86.2241C328.262 86.2241 332.017 84.2615 334.833 80.3361C337.649 76.3255 339.057 70.8215 339.057 63.8241C339.057 56.7415 337.649 51.2375 334.833 47.3121C332.102 43.3868 328.39 41.4241 323.697 41.4241C318.406 41.4241 314.268 43.3868 311.281 47.3121C308.38 51.2375 306.929 56.7415 306.929 63.8241C306.929 70.8215 308.38 76.3255 311.281 80.3361C314.268 84.2615 318.364 86.2241 323.569 86.2241Z" fill="white"/>
<path d="M239.695 99.5363C232.527 99.5363 226.767 97.915 222.415 94.6723C218.063 91.4296 215.887 86.8216 215.887 80.8483C215.887 74.9603 217.722 70.3523 221.391 67.0243C225.06 63.6963 230.65 61.307 238.159 59.8563L260.815 55.3763C260.815 45.6483 256.42 40.7843 247.631 40.7843C243.706 40.7843 240.591 41.723 238.287 43.6003C235.983 45.3923 234.447 47.995 233.679 51.4083L217.039 50.6403C218.404 43.4723 221.732 37.9256 227.023 34.0003C232.314 30.075 239.183 28.1123 247.631 28.1123C257.359 28.1123 264.698 30.587 269.647 35.5363C274.682 40.4003 277.199 47.3976 277.199 56.5283V81.3603C277.199 83.1523 277.498 84.3896 278.095 85.0723C278.778 85.755 279.759 86.0963 281.039 86.0963H283.215V98.0003C281.764 98.3416 279.759 98.5123 277.199 98.5123C273.53 98.5123 270.415 97.7443 267.855 96.2083C265.295 94.587 263.674 91.6856 262.991 87.5043C261.284 91.0883 258.34 93.9896 254.159 96.2083C250.063 98.427 245.242 99.5363 239.695 99.5363ZM243.023 87.6323C248.484 87.6323 252.794 86.0536 255.951 82.8963C259.194 79.739 260.815 75.5576 260.815 70.3523V66.5123L243.151 70.0963C239.482 70.8643 236.836 72.0163 235.215 73.5523C233.679 75.003 232.911 76.923 232.911 79.3123C232.911 84.859 236.282 87.6323 243.023 87.6323Z" fill="white"/>
<path d="M189.29 97.9998V29.6478H205.674V97.9998H189.29ZM189.034 20.5598V5.96777H206.058V20.5598H189.034Z" fill="white"/>
<path d="M171.234 98.0001C166.199 98.0001 162.189 96.7201 159.202 94.1601C156.301 91.6001 154.85 87.5041 154.85 81.8721V7.12012H171.234V80.2081C171.234 83.6215 172.941 85.3281 176.354 85.3281H181.346V98.0001H171.234Z" fill="white"/>
<path d="M111.978 99.5363C105.151 99.5363 99.2207 98.0856 94.186 95.1843C89.1514 92.1976 85.2687 88.0163 82.538 82.6403C79.8074 77.2643 78.442 70.9923 78.442 63.8243C78.442 56.6563 79.8074 50.3843 82.538 45.0083C85.2687 39.6323 89.1087 35.4936 94.058 32.5923C99.0927 29.6056 104.938 28.1123 111.594 28.1123C118.079 28.1123 123.754 29.563 128.618 32.4643C133.482 35.3656 137.237 39.547 139.882 45.0083C142.613 50.4696 143.978 57.0403 143.978 64.7203V68.4323H95.466C95.722 74.4056 97.3434 78.9283 100.33 82.0003C103.317 84.987 107.242 86.4803 112.106 86.4803C119.53 86.4803 124.266 83.323 126.314 77.0083L143.082 78.0323C141.205 84.6883 137.493 89.9363 131.946 93.7763C126.485 97.6163 119.829 99.5363 111.978 99.5363ZM95.466 57.4243H127.082C126.655 51.8776 125.034 47.7816 122.218 45.1363C119.487 42.4056 115.946 41.0403 111.594 41.0403C107.157 41.0403 103.53 42.4483 100.714 45.2643C97.898 48.0803 96.1487 52.1336 95.466 57.4243Z" fill="white"/>
<path d="M0 98.0001V7.12012H38.016C44.5867 7.12012 50.2613 8.22945 55.04 10.4481C59.8187 12.6668 63.5307 15.8241 66.176 19.9201C68.8213 24.0161 70.144 28.8375 70.144 34.3841C70.144 39.8455 68.608 44.4961 65.536 48.3361C62.5493 52.0908 58.8373 54.6508 54.4 56.0161C63.104 57.2961 67.84 62.5441 68.608 71.7601L70.912 98.0001H54.016L52.096 74.1921C51.84 70.5228 50.688 67.8775 48.64 66.2561C46.592 64.5495 43.1787 63.6961 38.4 63.6961H16.64V98.0001H0ZM16.64 49.1041H36.992C41.9413 49.1041 45.824 47.9521 48.64 45.6481C51.5413 43.2588 52.992 39.8455 52.992 35.4081C52.992 30.9708 51.5413 27.5575 48.64 25.1681C45.7387 22.7788 41.6 21.5841 36.224 21.5841H16.64V49.1041Z" fill="white"/>
<path d="M485.901 216.536C481.122 216.536 476.941 215.512 473.357 213.464C469.773 211.416 467.042 208.557 465.165 204.888L464.781 215H449.165V124.12H465.549V156.376C467.341 153.304 469.986 150.659 473.485 148.44C477.069 146.221 481.208 145.112 485.901 145.112C491.789 145.112 496.866 146.605 501.133 149.592C505.485 152.493 508.813 156.632 511.117 162.008C513.506 167.299 514.701 173.571 514.701 180.824C514.701 188.077 513.506 194.392 511.117 199.768C508.813 205.059 505.485 209.197 501.133 212.184C496.866 215.085 491.789 216.536 485.901 216.536ZM482.189 203.224C486.882 203.224 490.637 201.261 493.453 197.336C496.269 193.325 497.677 187.821 497.677 180.824C497.677 173.741 496.269 168.237 493.453 164.312C490.722 160.387 487.01 158.424 482.317 158.424C477.026 158.424 472.888 160.387 469.901 164.312C467 168.237 465.549 173.741 465.549 180.824C465.549 187.821 467 193.325 469.901 197.336C472.888 201.261 476.984 203.224 482.189 203.224Z" fill="white"/>
<path d="M399.253 216.536C392.256 216.536 386.752 214.275 382.741 209.752C378.73 205.23 376.725 198.872 376.725 190.68V146.648H393.109V186.584C393.109 192.387 394.048 196.611 395.925 199.256C397.888 201.902 400.832 203.224 404.757 203.224C409.109 203.224 412.522 201.774 414.997 198.872C417.472 195.886 418.709 191.576 418.709 185.944V146.648H435.093V215H420.117L419.861 203.864C416.277 212.312 409.408 216.536 399.253 216.536Z" fill="white"/>
<path d="M358.669 215C353.634 215 349.624 213.72 346.637 211.16C343.736 208.6 342.285 204.504 342.285 198.872V124.12H358.669V197.208C358.669 200.621 360.376 202.328 363.789 202.328H368.781V215H358.669Z" fill="white"/>
<path d="M292.376 217.048C284.099 217.048 276.803 215.171 270.488 211.416C264.173 207.576 259.224 202.158 255.64 195.16C252.056 188.078 250.264 179.587 250.264 169.688C250.264 159.96 252.013 151.555 255.512 144.472C259.011 137.304 263.917 131.8 270.232 127.96C276.547 124.035 283.971 122.072 292.504 122.072C304.109 122.072 313.112 124.974 319.512 130.776C325.912 136.494 330.093 144.515 332.056 154.84L314.648 155.736C313.539 149.763 311.149 145.07 307.48 141.656C303.811 138.243 298.819 136.536 292.504 136.536C284.824 136.536 278.723 139.523 274.2 145.496C269.677 151.47 267.416 159.534 267.416 169.688C267.416 179.928 269.677 187.992 274.2 193.88C278.808 199.683 284.867 202.584 292.376 202.584C299.117 202.584 304.323 200.75 307.992 197.08C311.747 193.326 314.136 188.206 315.16 181.72L332.568 182.616C330.776 193.283 326.467 201.688 319.64 207.832C312.899 213.976 303.811 217.048 292.376 217.048Z" fill="white"/>
<path d="M686.7 76.5392C675.386 58.0407 664.071 39.4524 652.667 21.0437C646.112 10.3577 645.303 10.3577 637.401 20.3253C626.625 33.7951 619.98 35.4115 604.804 27.3296C595.645 22.4805 587.024 16.7334 577.865 11.7945C566.101 5.50857 554.068 0.210462 539.072 0.120663C528.296 -0.956918 519.496 5.32898 511.414 13.1414C508.81 15.6558 508.899 18.26 510.426 21.4927C523.896 50.1384 537.186 78.7841 550.386 107.52C552.362 111.74 555.415 113.267 559.187 111.92C565.922 109.585 572.567 106.622 579.122 103.658C595.196 96.3846 610.911 94.7683 625.907 106.442C631.115 110.483 636.773 114.075 642.43 117.397C649.793 121.798 657.785 122.426 664.61 116.859C672.063 110.752 679.157 103.838 685.443 96.4744C692.448 88.3028 692.178 85.519 686.7 76.5392Z" fill="white"/>
<path d="M495.34 15.297C492.377 8.92131 489.862 8.02333 484.205 10.6275C478.188 13.4112 477.47 15.6562 480.523 22.4809C494.891 54.8083 563.766 209.801 563.766 209.801C563.766 209.801 567.987 217.703 576.518 214.111C585.228 210.429 580.828 201.719 580.828 201.719C580.828 201.719 513.12 53.641 495.34 15.297Z" fill="white"/>
<path d="M686.7 76.5392C675.386 58.0407 664.071 39.4524 652.667 21.0437C646.112 10.3577 645.303 10.3577 637.401 20.3253C626.625 33.7951 619.98 35.4115 604.804 27.3296C595.645 22.4805 587.024 16.7334 577.865 11.7945C566.101 5.50857 554.068 0.210462 539.072 0.120663C528.296 -0.956918 519.496 5.32898 511.414 13.1414C508.81 15.6558 508.899 18.26 510.426 21.4927C523.896 50.1384 537.186 78.7841 550.386 107.52C552.362 111.74 555.415 113.267 559.187 111.92C565.922 109.585 572.567 106.622 579.122 103.658C595.196 96.3846 610.911 94.7683 625.907 106.442C631.115 110.483 636.773 114.075 642.43 117.397C649.793 121.798 657.785 122.426 664.61 116.859C672.063 110.752 679.157 103.838 685.443 96.4744C692.448 88.3028 692.178 85.519 686.7 76.5392Z" fill="white"/>
<path d="M495.34 15.297C492.377 8.92131 489.862 8.02333 484.205 10.6275C478.188 13.4112 477.47 15.6562 480.523 22.4809C494.891 54.8083 563.766 209.801 563.766 209.801C563.766 209.801 567.987 217.703 576.518 214.111C585.228 210.429 580.828 201.719 580.828 201.719C580.828 201.719 513.12 53.641 495.34 15.297Z" fill="white"/>
</svg>
