<svg width="691" height="218" viewBox="0 0 691 218" fill="none" xmlns="http://www.w3.org/2000/svg">
<path d="M431.108 99.5363C424.281 99.5363 418.351 98.0856 413.316 95.1843C408.281 92.1976 404.399 88.0163 401.668 82.6403C398.937 77.2643 397.572 70.9923 397.572 63.8243C397.572 56.6563 398.937 50.3843 401.668 45.0083C404.399 39.6323 408.239 35.4936 413.188 32.5923C418.223 29.6056 424.068 28.1123 430.724 28.1123C437.209 28.1123 442.884 29.563 447.748 32.4643C452.612 35.3656 456.367 39.547 459.012 45.0083C461.743 50.4696 463.108 57.0403 463.108 64.7203V68.4323H414.596C414.852 74.4056 416.473 78.9283 419.46 82.0003C422.447 84.987 426.372 86.4803 431.236 86.4803C438.66 86.4803 443.396 83.323 445.444 77.0083L462.212 78.0323C460.335 84.6883 456.623 89.9363 451.076 93.7763C445.615 97.6163 438.959 99.5363 431.108 99.5363ZM414.596 57.4243H446.212C445.785 51.8776 444.164 47.7816 441.348 45.1363C438.617 42.4056 435.076 41.0403 430.724 41.0403C426.287 41.0403 422.66 42.4483 419.844 45.2643C417.028 48.0803 415.279 52.1336 414.596 57.4243Z" fill="black"/>
<path d="M383.484 98.0001C378.449 98.0001 374.439 96.7201 371.452 94.1601C368.551 91.6001 367.1 87.5041 367.1 81.8721V7.12012H383.484V80.2081C383.484 83.6215 385.191 85.3281 388.604 85.3281H393.596V98.0001H383.484Z" fill="black"/>
<path d="M327.521 99.5361C322.742 99.5361 318.561 98.5121 314.977 96.4641C311.393 94.4161 308.662 91.5575 306.785 87.8881L306.401 98.0001H290.785V7.12012H307.169V39.3761C308.961 36.3041 311.606 33.6588 315.105 31.4401C318.689 29.2215 322.828 28.1121 327.521 28.1121C333.409 28.1121 338.486 29.6055 342.753 32.5921C347.105 35.4935 350.433 39.6321 352.737 45.0081C355.126 50.2988 356.321 56.5708 356.321 63.8241C356.321 71.0775 355.126 77.3921 352.737 82.7681C350.433 88.0588 347.105 92.1975 342.753 95.1841C338.486 98.0855 333.409 99.5361 327.521 99.5361ZM323.809 86.2241C328.502 86.2241 332.257 84.2615 335.073 80.3361C337.889 76.3255 339.297 70.8215 339.297 63.8241C339.297 56.7415 337.889 51.2375 335.073 47.3121C332.342 43.3868 328.63 41.4241 323.937 41.4241C318.646 41.4241 314.508 43.3868 311.521 47.3121C308.62 51.2375 307.169 56.7415 307.169 63.8241C307.169 70.8215 308.62 76.3255 311.521 80.3361C314.508 84.2615 318.604 86.2241 323.809 86.2241Z" fill="black"/>
<path d="M239.935 99.5363C232.767 99.5363 227.007 97.915 222.655 94.6723C218.303 91.4296 216.127 86.8216 216.127 80.8483C216.127 74.9603 217.962 70.3523 221.631 67.0243C225.3 63.6963 230.89 61.307 238.399 59.8563L261.055 55.3763C261.055 45.6483 256.66 40.7843 247.871 40.7843C243.946 40.7843 240.831 41.723 238.527 43.6003C236.223 45.3923 234.687 47.995 233.919 51.4083L217.279 50.6403C218.644 43.4723 221.972 37.9256 227.263 34.0003C232.554 30.075 239.423 28.1123 247.871 28.1123C257.599 28.1123 264.938 30.587 269.887 35.5363C274.922 40.4003 277.439 47.3976 277.439 56.5283V81.3603C277.439 83.1523 277.738 84.3896 278.335 85.0723C279.018 85.755 279.999 86.0963 281.279 86.0963H283.455V98.0003C282.004 98.3416 279.999 98.5123 277.439 98.5123C273.77 98.5123 270.655 97.7443 268.095 96.2083C265.535 94.587 263.914 91.6856 263.231 87.5043C261.524 91.0883 258.58 93.9896 254.399 96.2083C250.303 98.427 245.482 99.5363 239.935 99.5363ZM243.263 87.6323C248.724 87.6323 253.034 86.0536 256.191 82.8963C259.434 79.739 261.055 75.5576 261.055 70.3523V66.5123L243.391 70.0963C239.722 70.8643 237.076 72.0163 235.455 73.5523C233.919 75.003 233.151 76.923 233.151 79.3123C233.151 84.859 236.522 87.6323 243.263 87.6323Z" fill="black"/>
<path d="M189.53 97.9998V29.6478H205.914V97.9998H189.53ZM189.274 20.5598V5.96777H206.298V20.5598H189.274Z" fill="black"/>
<path d="M171.474 98.0001C166.439 98.0001 162.429 96.7201 159.442 94.1601C156.541 91.6001 155.09 87.5041 155.09 81.8721V7.12012H171.474V80.2081C171.474 83.6215 173.181 85.3281 176.594 85.3281H181.586V98.0001H171.474Z" fill="black"/>
<path d="M112.218 99.5363C105.391 99.5363 99.4607 98.0856 94.426 95.1843C89.3913 92.1976 85.5087 88.0163 82.778 82.6403C80.0473 77.2643 78.682 70.9923 78.682 63.8243C78.682 56.6563 80.0473 50.3843 82.778 45.0083C85.5087 39.6323 89.3487 35.4936 94.298 32.5923C99.3327 29.6056 105.178 28.1123 111.834 28.1123C118.319 28.1123 123.994 29.563 128.858 32.4643C133.722 35.3656 137.477 39.547 140.122 45.0083C142.853 50.4696 144.218 57.0403 144.218 64.7203V68.4323H95.706C95.962 74.4056 97.5833 78.9283 100.57 82.0003C103.557 84.987 107.482 86.4803 112.346 86.4803C119.77 86.4803 124.506 83.323 126.554 77.0083L143.322 78.0323C141.445 84.6883 137.733 89.9363 132.186 93.7763C126.725 97.6163 120.069 99.5363 112.218 99.5363ZM95.706 57.4243H127.322C126.895 51.8776 125.274 47.7816 122.458 45.1363C119.727 42.4056 116.186 41.0403 111.834 41.0403C107.397 41.0403 103.77 42.4483 100.954 45.2643C98.138 48.0803 96.3887 52.1336 95.706 57.4243Z" fill="black"/>
<path d="M0.23999 98.0001V7.12012H38.256C44.8267 7.12012 50.5013 8.22945 55.28 10.4481C60.0587 12.6668 63.7707 15.8241 66.416 19.9201C69.0613 24.0161 70.384 28.8375 70.384 34.3841C70.384 39.8455 68.848 44.4961 65.776 48.3361C62.7893 52.0908 59.0773 54.6508 54.64 56.0161C63.344 57.2961 68.08 62.5441 68.848 71.7601L71.152 98.0001H54.256L52.336 74.1921C52.08 70.5228 50.928 67.8775 48.88 66.2561C46.832 64.5495 43.4187 63.6961 38.64 63.6961H16.88V98.0001H0.23999ZM16.88 49.1041H37.232C42.1813 49.1041 46.064 47.9521 48.88 45.6481C51.7813 43.2588 53.232 39.8455 53.232 35.4081C53.232 30.9708 51.7813 27.5575 48.88 25.1681C45.9787 22.7788 41.84 21.5841 36.464 21.5841H16.88V49.1041Z" fill="black"/>
<path d="M486.141 216.536C481.362 216.536 477.181 215.512 473.597 213.464C470.013 211.416 467.282 208.557 465.405 204.888L465.021 215H449.405V124.12H465.789V156.376C467.581 153.304 470.226 150.659 473.725 148.44C477.309 146.221 481.448 145.112 486.141 145.112C492.029 145.112 497.106 146.605 501.373 149.592C505.725 152.493 509.053 156.632 511.357 162.008C513.746 167.299 514.941 173.571 514.941 180.824C514.941 188.077 513.746 194.392 511.357 199.768C509.053 205.059 505.725 209.197 501.373 212.184C497.106 215.085 492.029 216.536 486.141 216.536ZM482.429 203.224C487.122 203.224 490.877 201.261 493.693 197.336C496.509 193.325 497.917 187.821 497.917 180.824C497.917 173.741 496.509 168.237 493.693 164.312C490.962 160.387 487.25 158.424 482.557 158.424C477.266 158.424 473.128 160.387 470.141 164.312C467.24 168.237 465.789 173.741 465.789 180.824C465.789 187.821 467.24 193.325 470.141 197.336C473.128 201.261 477.224 203.224 482.429 203.224Z" fill="black"/>
<path d="M399.493 216.536C392.496 216.536 386.992 214.275 382.981 209.752C378.97 205.23 376.965 198.872 376.965 190.68V146.648H393.349V186.584C393.349 192.387 394.288 196.611 396.165 199.256C398.128 201.902 401.072 203.224 404.997 203.224C409.349 203.224 412.762 201.774 415.237 198.872C417.712 195.886 418.949 191.576 418.949 185.944V146.648H435.333V215H420.357L420.101 203.864C416.517 212.312 409.648 216.536 399.493 216.536Z" fill="black"/>
<path d="M358.909 215C353.874 215 349.864 213.72 346.877 211.16C343.976 208.6 342.525 204.504 342.525 198.872V124.12H358.909V197.208C358.909 200.621 360.616 202.328 364.029 202.328H369.021V215H358.909Z" fill="black"/>
<path d="M292.616 217.048C284.339 217.048 277.043 215.171 270.728 211.416C264.413 207.576 259.464 202.158 255.88 195.16C252.296 188.078 250.504 179.587 250.504 169.688C250.504 159.96 252.253 151.555 255.752 144.472C259.251 137.304 264.157 131.8 270.472 127.96C276.787 124.035 284.211 122.072 292.744 122.072C304.349 122.072 313.352 124.974 319.752 130.776C326.152 136.494 330.333 144.515 332.296 154.84L314.888 155.736C313.779 149.763 311.389 145.07 307.72 141.656C304.051 138.243 299.059 136.536 292.744 136.536C285.064 136.536 278.963 139.523 274.44 145.496C269.917 151.47 267.656 159.534 267.656 169.688C267.656 179.928 269.917 187.992 274.44 193.88C279.048 199.683 285.107 202.584 292.616 202.584C299.357 202.584 304.563 200.75 308.232 197.08C311.987 193.326 314.376 188.206 315.4 181.72L332.808 182.616C331.016 193.283 326.707 201.688 319.88 207.832C313.139 213.976 304.051 217.048 292.616 217.048Z" fill="black"/>
<path d="M686.94 76.5392C675.626 58.0407 664.311 39.4524 652.907 21.0437C646.352 10.3577 645.543 10.3577 637.641 20.3253C626.865 33.7951 620.22 35.4115 605.044 27.3296C595.885 22.4805 587.264 16.7334 578.105 11.7945C566.341 5.50857 554.308 0.210462 539.312 0.120663C528.536 -0.956918 519.736 5.32898 511.654 13.1414C509.05 15.6558 509.139 18.26 510.666 21.4927C524.136 50.1384 537.426 78.7841 550.626 107.52C552.602 111.74 555.655 113.267 559.427 111.92C566.162 109.585 572.807 106.622 579.362 103.658C595.436 96.3846 611.151 94.7683 626.147 106.442C631.355 110.483 637.013 114.075 642.67 117.397C650.033 121.798 658.025 122.426 664.85 116.859C672.303 110.752 679.397 103.838 685.683 96.4744C692.688 88.3028 692.418 85.519 686.94 76.5392Z" fill="black"/>
<path d="M495.58 15.2972C492.617 8.92156 490.102 8.02357 484.445 10.6277C478.428 13.4115 477.71 15.6564 480.763 22.4811C495.131 54.8086 564.006 209.801 564.006 209.801C564.006 209.801 568.227 217.703 576.758 214.111C585.468 210.429 581.068 201.719 581.068 201.719C581.068 201.719 513.36 53.6412 495.58 15.2972Z" fill="black"/>
</svg>
